<?xml version="1.0" encoding="UTF-8" standalone="no"?>
<!DOCTYPE svg PUBLIC "-//W3C//DTD SVG 1.1//EN"
 "http://www.w3.org/Graphics/SVG/1.1/DTD/svg11.dtd">
<!-- Generated by graphviz version 5.0.0 (20220707.1540)
 -->
<!-- Title: UmlClassDiagram Pages: 1 -->
<svg width="623pt" height="710pt"
 viewBox="0.00 0.00 622.77 710.20" xmlns="http://www.w3.org/2000/svg" xmlns:xlink="http://www.w3.org/1999/xlink">
<g id="graph0" class="graph" transform="scale(1 1) rotate(0) translate(4 706.2)">
<title>UmlClassDiagram</title>
<polygon fill="white" stroke="transparent" points="-4,4 -4,-706.2 618.77,-706.2 618.77,4 -4,4"/>
<!-- 1 -->
<g id="node1" class="node">
<title>1</title>
<polygon fill="#f2f2f2" stroke="black" points="193.85,-0.5 193.85,-201.3 420.92,-201.3 420.92,-0.5 193.85,-0.5"/>
<text text-anchor="middle" x="307.39" y="-184.7" font-family="Times,serif" font-size="14.00">&lt;&lt;Struct&gt;&gt;</text>
<text text-anchor="middle" x="307.39" y="-167.9" font-family="Times,serif" font-size="14.00">DataPromise</text>
<text text-anchor="middle" x="307.39" y="-151.1" font-family="Times,serif" font-size="14.00">BackendcontractslectoralManager.sol</text>
<polyline fill="none" stroke="black" points="193.85,-142.9 420.92,-142.9 "/>
<text text-anchor="start" x="201.85" y="-126.3" font-family="Times,serif" font-size="14.00">id: uint256</text>
<text text-anchor="start" x="201.85" y="-109.5" font-family="Times,serif" font-size="14.00">created: uint256</text>
<text text-anchor="start" x="201.85" y="-92.7" font-family="Times,serif" font-size="14.00">idAuthor: uint256</text>
<text text-anchor="start" x="201.85" y="-75.9" font-family="Times,serif" font-size="14.00">isObligatory: bool</text>
<text text-anchor="start" x="201.85" y="-59.1" font-family="Times,serif" font-size="14.00">isApproved: bool</text>
<text text-anchor="start" x="201.85" y="-42.3" font-family="Times,serif" font-size="14.00">tokenUri: string</text>
<text text-anchor="start" x="201.85" y="-25.5" font-family="Times,serif" font-size="14.00">nameAuthor: string</text>
<text text-anchor="start" x="201.85" y="-8.7" font-family="Times,serif" font-size="14.00">relationalPromises: uint256[]</text>
</g>
<!-- 0 -->
<g id="node3" class="node">
<title>0</title>
<polygon fill="#f2f2f2" stroke="black" points="0,-238.3 0,-547.9 614.77,-547.9 614.77,-238.3 0,-238.3"/>
<text text-anchor="middle" x="307.39" y="-531.3" font-family="Times,serif" font-size="14.00">ElectoralManager</text>
<text text-anchor="middle" x="307.39" y="-514.5" font-family="Times,serif" font-size="14.00">BackendcontractslectoralManager.sol</text>
<polyline fill="none" stroke="black" points="0,-506.3 614.77,-506.3 "/>
<text text-anchor="start" x="8" y="-489.7" font-family="Times,serif" font-size="14.00">Public:</text>
<text text-anchor="start" x="8" y="-472.9" font-family="Times,serif" font-size="14.00"> &#160;&#160;listElectoralPromises: DataPromise[]</text>
<text text-anchor="start" x="8" y="-456.1" font-family="Times,serif" font-size="14.00"> &#160;&#160;counterElectoralPromises: uint256</text>
<text text-anchor="start" x="8" y="-439.3" font-family="Times,serif" font-size="14.00"> &#160;&#160;counterPromisers: uint256</text>
<text text-anchor="start" x="8" y="-422.5" font-family="Times,serif" font-size="14.00"> &#160;&#160;listPromisers: mapping(address=&gt;Promiser)</text>
<polyline fill="none" stroke="black" points="0,-414.3 614.77,-414.3 "/>
<text text-anchor="start" x="8" y="-397.7" font-family="Times,serif" font-size="14.00">Internal:</text>
<text text-anchor="start" x="8" y="-380.9" font-family="Times,serif" font-size="14.00"> &#160;&#160;&#160;_checkPromiser(_addressToCheck: address): uint256</text>
<text text-anchor="start" x="8" y="-364.1" font-family="Times,serif" font-size="14.00">External:</text>
<text text-anchor="start" x="8" y="-347.3" font-family="Times,serif" font-size="14.00"> &#160;&#160;&#160;registerUser(_completeName: string, _isPoliticalParty: bool): uint256</text>
<text text-anchor="start" x="8" y="-330.5" font-family="Times,serif" font-size="14.00"> &#160;&#160;&#160;createElectoralPromise(_tokenURI: string, _isObligatory: bool, _relationalPromises: uint256[]): uint256</text>
<text text-anchor="start" x="8" y="-313.7" font-family="Times,serif" font-size="14.00"> &#160;&#160;&#160;checkMyIdentifier(): uint256</text>
<text text-anchor="start" x="8" y="-296.9" font-family="Times,serif" font-size="14.00">Public:</text>
<text text-anchor="start" x="8" y="-280.1" font-family="Times,serif" font-size="14.00"> &#160;&#160;&#160;&lt;&lt;event&gt;&gt; NewPromiser(owner: address)</text>
<text text-anchor="start" x="8" y="-263.3" font-family="Times,serif" font-size="14.00"> &#160;&#160;&#160;constructor()</text>
<text text-anchor="start" x="8" y="-246.5" font-family="Times,serif" font-size="14.00"> &#160;&#160;&#160;getAllPromises(): DataPromise[]</text>
</g>
<!-- 1&#45;&gt;0 -->
<g id="edge1" class="edge">
<title>1&#45;&gt;0</title>
<path fill="none" stroke="black" d="M300.94,-201.36C300.83,-209.36 300.75,-217.55 300.7,-225.85"/>
<polygon fill="black" stroke="black" points="300.7,-226.05 304.67,-232.07 300.65,-238.05 296.67,-232.03 300.7,-226.05"/>
</g>
<!-- 2 -->
<g id="node2" class="node">
<title>2</title>
<polygon fill="#f2f2f2" stroke="black" points="193.85,-584.9 193.85,-701.7 420.92,-701.7 420.92,-584.9 193.85,-584.9"/>
<text text-anchor="middle" x="307.39" y="-685.1" font-family="Times,serif" font-size="14.00">&lt;&lt;Struct&gt;&gt;</text>
<text text-anchor="middle" x="307.39" y="-668.3" font-family="Times,serif" font-size="14.00">Promiser</text>
<text text-anchor="middle" x="307.39" y="-651.5" font-family="Times,serif" font-size="14.00">BackendcontractslectoralManager.sol</text>
<polyline fill="none" stroke="black" points="193.85,-643.3 420.92,-643.3 "/>
<text text-anchor="start" x="201.85" y="-626.7" font-family="Times,serif" font-size="14.00">idAuthor: uint256</text>
<text text-anchor="start" x="201.85" y="-609.9" font-family="Times,serif" font-size="14.00">completeName: string</text>
<text text-anchor="start" x="201.85" y="-593.1" font-family="Times,serif" font-size="14.00">isPoliticalParty: bool</text>
</g>
<!-- 2&#45;&gt;0 -->
<g id="edge2" class="edge">
<title>2&#45;&gt;0</title>
<path fill="none" stroke="black" d="M313.19,-584.71C313.43,-577 313.63,-568.8 313.78,-560.3"/>
<polygon fill="black" stroke="black" points="313.78,-560.11 309.87,-554.05 313.96,-548.11 317.87,-554.17 313.78,-560.11"/>
</g>
<!-- 0&#45;&gt;1 -->
<g id="edge3" class="edge">
<title>0&#45;&gt;1</title>
<path fill="none" stroke="black" d="M314.13,-238.05C314.1,-229.11 314.05,-220.21 313.95,-211.5"/>
<polygon fill="black" stroke="black" points="317.45,-211.32 313.83,-201.36 310.45,-211.41 317.45,-211.32"/>
</g>
<!-- 0&#45;&gt;2 -->
<g id="edge4" class="edge">
<title>0&#45;&gt;2</title>
<path fill="none" stroke="black" d="M300.81,-548.11C300.92,-557.25 301.09,-566.16 301.3,-574.62"/>
<polygon fill="black" stroke="black" points="297.8,-574.81 301.59,-584.71 304.8,-574.62 297.8,-574.81"/>
</g>
</g>
</svg>
