<!DOCTYPE svg PUBLIC "-//W3C//DTD SVG 1.1//EN"
 "http://www.w3.org/Graphics/SVG/1.1/DTD/svg11.dtd">
<!-- Generated by graphviz version 5.0.0 (20220707.1540)
 -->
<!-- Title: UmlClassDiagram Pages: 1 -->
<svg width="623pt" height="693pt"
 viewBox="0.00 0.00 622.77 693.40" xmlns="http://www.w3.org/2000/svg" xmlns:xlink="http://www.w3.org/1999/xlink">
<g id="graph0" class="graph" transform="scale(1 1) rotate(0) translate(4 689.4)">
<title>UmlClassDiagram</title>
<polygon fill="white" stroke="transparent" points="-4,4 -4,-689.4 618.77,-689.4 618.77,4 -4,4"/>
<!-- 1 -->
<g id="node1" class="node">
<title>1</title>
<polygon fill="#f2f2f2" stroke="black" points="193.85,-0.5 193.85,-184.5 420.92,-184.5 420.92,-0.5 193.85,-0.5"/>
<text text-anchor="middle" x="307.39" y="-167.9" font-family="Times,serif" font-size="14.00">&lt;&lt;Struct&gt;&gt;</text>
<text text-anchor="middle" x="307.39" y="-151.1" font-family="Times,serif" font-size="14.00">DataPromise</text>
<text text-anchor="middle" x="307.39" y="-134.3" font-family="Times,serif" font-size="14.00">BackendcontractslectoralManager.sol</text>
<polyline fill="none" stroke="black" points="193.85,-126.1 420.92,-126.1 "/>
<text text-anchor="start" x="201.85" y="-109.5" font-family="Times,serif" font-size="14.00">id: uint256</text>
<text text-anchor="start" x="201.85" y="-92.7" font-family="Times,serif" font-size="14.00">created: uint256</text>
<text text-anchor="start" x="201.85" y="-75.9" font-family="Times,serif" font-size="14.00">idAuthor: uint256</text>
<text text-anchor="start" x="201.85" y="-59.1" font-family="Times,serif" font-size="14.00">isObligatory: bool</text>
<text text-anchor="start" x="201.85" y="-42.3" font-family="Times,serif" font-size="14.00">isApproved: bool</text>
<text text-anchor="start" x="201.85" y="-25.5" font-family="Times,serif" font-size="14.00">tokenUri: string</text>
<text text-anchor="start" x="201.85" y="-8.7" font-family="Times,serif" font-size="14.00">relationalPromises: uint256[]</text>
</g>
<!-- 0 -->
<g id="node3" class="node">
<title>0</title>
<polygon fill="#f2f2f2" stroke="black" points="0,-221.5 0,-531.1 614.77,-531.1 614.77,-221.5 0,-221.5"/>
<text text-anchor="middle" x="307.39" y="-514.5" font-family="Times,serif" font-size="14.00">ElectoralManager</text>
<text text-anchor="middle" x="307.39" y="-497.7" font-family="Times,serif" font-size="14.00">BackendcontractslectoralManager.sol</text>
<polyline fill="none" stroke="black" points="0,-489.5 614.77,-489.5 "/>
<text text-anchor="start" x="8" y="-472.9" font-family="Times,serif" font-size="14.00">Public:</text>
<text text-anchor="start" x="8" y="-456.1" font-family="Times,serif" font-size="14.00"> &#160;&#160;listElectoralPromises: DataPromise[]</text>
<text text-anchor="start" x="8" y="-439.3" font-family="Times,serif" font-size="14.00"> &#160;&#160;counterElectoralPromises: uint256</text>
<text text-anchor="start" x="8" y="-422.5" font-family="Times,serif" font-size="14.00"> &#160;&#160;counterPromisers: uint256</text>
<text text-anchor="start" x="8" y="-405.7" font-family="Times,serif" font-size="14.00"> &#160;&#160;listPromisers: mapping(address=&gt;Promiser)</text>
<polyline fill="none" stroke="black" points="0,-397.5 614.77,-397.5 "/>
<text text-anchor="start" x="8" y="-380.9" font-family="Times,serif" font-size="14.00">Internal:</text>
<text text-anchor="start" x="8" y="-364.1" font-family="Times,serif" font-size="14.00"> &#160;&#160;&#160;_checkPromiser(_addressToCheck: address): uint256</text>
<text text-anchor="start" x="8" y="-347.3" font-family="Times,serif" font-size="14.00">External:</text>
<text text-anchor="start" x="8" y="-330.5" font-family="Times,serif" font-size="14.00"> &#160;&#160;&#160;registerUser(_completeName: string, _isPoliticalParty: bool): uint256</text>
<text text-anchor="start" x="8" y="-313.7" font-family="Times,serif" font-size="14.00"> &#160;&#160;&#160;checkMyIdentifier(): uint256</text>
<text text-anchor="start" x="8" y="-296.9" font-family="Times,serif" font-size="14.00"> &#160;&#160;&#160;createElectoralPromise(_tokenURI: string, _isObligatory: bool, _relationalPromises: uint256[]): uint256</text>
<text text-anchor="start" x="8" y="-280.1" font-family="Times,serif" font-size="14.00">Public:</text>
<text text-anchor="start" x="8" y="-263.3" font-family="Times,serif" font-size="14.00"> &#160;&#160;&#160;&lt;&lt;event&gt;&gt; NewPromiser(owner: address)</text>
<text text-anchor="start" x="8" y="-246.5" font-family="Times,serif" font-size="14.00"> &#160;&#160;&#160;constructor()</text>
<text text-anchor="start" x="8" y="-229.7" font-family="Times,serif" font-size="14.00"> &#160;&#160;&#160;getAllPromises(): DataPromise[]</text>
</g>
<!-- 1&#45;&gt;0 -->
<g id="edge1" class="edge">
<title>1&#45;&gt;0</title>
<path fill="none" stroke="black" d="M301.03,-184.6C300.9,-192.54 300.8,-200.73 300.73,-209.03"/>
<polygon fill="black" stroke="black" points="300.73,-209.27 304.7,-215.3 300.66,-221.27 296.7,-215.25 300.73,-209.27"/>
</g>
<!-- 2 -->
<g id="node2" class="node">
<title>2</title>
<polygon fill="#f2f2f2" stroke="black" points="193.85,-568.1 193.85,-684.9 420.92,-684.9 420.92,-568.1 193.85,-568.1"/>
<text text-anchor="middle" x="307.39" y="-668.3" font-family="Times,serif" font-size="14.00">&lt;&lt;Struct&gt;&gt;</text>
<text text-anchor="middle" x="307.39" y="-651.5" font-family="Times,serif" font-size="14.00">Promiser</text>
<text text-anchor="middle" x="307.39" y="-634.7" font-family="Times,serif" font-size="14.00">BackendcontractslectoralManager.sol</text>
<polyline fill="none" stroke="black" points="193.85,-626.5 420.92,-626.5 "/>
<text text-anchor="start" x="201.85" y="-609.9" font-family="Times,serif" font-size="14.00">idAuthor: uint256</text>
<text text-anchor="start" x="201.85" y="-593.1" font-family="Times,serif" font-size="14.00">completeName: string</text>
<text text-anchor="start" x="201.85" y="-576.3" font-family="Times,serif" font-size="14.00">isPoliticalParty: bool</text>
</g>
<!-- 2&#45;&gt;0 -->
<g id="edge2" class="edge">
<title>2&#45;&gt;0</title>
<path fill="none" stroke="black" d="M313.19,-567.91C313.43,-560.2 313.63,-552 313.78,-543.5"/>
<polygon fill="black" stroke="black" points="313.78,-543.31 309.87,-537.25 313.96,-531.31 317.87,-537.37 313.78,-543.31"/>
</g>
<!-- 0&#45;&gt;1 -->
<g id="edge3" class="edge">
<title>0&#45;&gt;1</title>
<path fill="none" stroke="black" d="M314.11,-221.27C314.07,-212.29 314,-203.38 313.89,-194.69"/>
<polygon fill="black" stroke="black" points="317.39,-194.55 313.75,-184.6 310.39,-194.65 317.39,-194.55"/>
</g>
<!-- 0&#45;&gt;2 -->
<g id="edge4" class="edge">
<title>0&#45;&gt;2</title>
<path fill="none" stroke="black" d="M300.81,-531.31C300.92,-540.45 301.09,-549.36 301.3,-557.82"/>
<polygon fill="black" stroke="black" points="297.8,-558.01 301.59,-567.91 304.8,-557.82 297.8,-558.01"/>
</g>
</g>
</svg>
